# xmcd CD database file
# Copyright (C) 1996 Ti Kan
#
# Track frame offsets:
# 	150
# 	20085
# 	34707
# 	48430
# 	66162
# 	80195
# 	94020
# 	114480
# 	129312
# 	142930
# 	156695
# 	167362
# 	184647
# 	197272
#
# Disc length: 2822 seconds
#
# Revision: 1
# Processed by: cddbd v1.4b41PL1 Copyright (c) Steve Scherf et al.
# Submitted via: DiscPlay 3.3.1
#
DISCID=b70b040e
DTITLE=Shake Russell and Jack Saunders - Before Now
DYEAR=1900
DGENRE=
TTITLE0=Deep In The West
TTITLE1=Hard To Find A Smile
TTITLE2=Travelin' Texas
TTITLE3=Troubles
TTITLE4=Two Silver Hearts
TTITLE5=You Wouldn't Know Me
TTITLE6=You've Got A Lover
TTITLE7=You Will Not Be Forgotten
TTITLE8=How Soon A Heart Forgets
TTITLE9=Safe With Me
TTITLE10=Hey Hot Rod
TTITLE11=Gift Of Love
TTITLE12=Just Say Yes
TTITLE13=Pillow of Stone
EXTD=
EXTT0=
EXTT1=
EXTT2=
EXTT3=
EXTT4=
EXTT5=
EXTT6=
EXTT7=
EXTT8=
EXTT9=
EXTT10=
EXTT11=
EXTT12=
EXTT13=
PLAYORDER=
